<svg xmlns="http://www.w3.org/2000/svg" style="display: none" aria-hidden="true">
  <!-- #region MARK: Header
  -->
  <symbol id="cog-outline" viewBox="0 0 24 24">
    <title>Configuration</title>
    <path
      d="M12,8A4,4 0 0,1 16,12A4,4 0 0,1 12,16A4,4 0 0,1 8,12A4,4 0 0,1 12,8M12,10A2,2 0 0,0 10,12A2,2 0 0,0 12,14A2,2 0 0,0 14,12A2,2 0 0,0 12,10M10,22C9.75,22 9.54,21.82 9.5,21.58
         L9.13,18.93C8.5,18.68 7.96,18.34 7.44,17.94L4.95,18.95C4.73,19.03 4.46,18.95 4.34,18.73L2.34,15.27C2.21,15.05 2.27,14.78 2.46,14.63L4.57,12.97L4.5,12L4.57,11L2.46,9.37
         C2.27,9.22 2.21,8.95 2.34,8.73L4.34,5.27C4.46,5.05 4.73,4.96 4.95,5.05L7.44,6.05C7.96,5.66 8.5,5.32 9.13,5.07L9.5,2.42C9.54,2.18 9.75,2 10,2H14C14.25,2 14.46,2.18 14.5,2.42
         L14.87,5.07C15.5,5.32 16.04,5.66 16.56,6.05L19.05,5.05C19.27,4.96 19.54,5.05 19.66,5.27L21.66,8.73C21.79,8.95 21.73,9.22 21.54,9.37L19.43,11L19.5,12L19.43,13L21.54,14.63
         C21.73,14.78 21.79,15.05 21.66,15.27L19.66,18.73C19.54,18.95 19.27,19.04 19.05,18.95L16.56,17.95C16.04,18.34 15.5,18.68 14.87,18.93L14.5,21.58C14.46,21.82 14.25,22 14,22H10
         M11.25,4L10.88,6.61C9.68,6.86 8.62,7.5 7.85,8.39L5.44,7.35L4.69,8.65L6.8,10.2C6.4,11.37 6.4,12.64 6.8,13.8L4.68,15.36L5.43,16.66L7.86,15.62C8.63,16.5 9.68,17.14 10.87,17.38
         L11.24,20H12.76L13.13,17.39C14.32,17.14 15.37,16.5 16.14,15.62L18.57,16.66L19.32,15.36L17.2,13.81C17.6,12.64 17.6,11.37 17.2,10.2L19.31,8.65L18.56,7.35L16.15,8.39
         C15.38,7.5 14.32,6.86 13.12,6.62L12.75,4H11.25Z"
    />
  </symbol>

  <symbol id="text-box-outline" viewBox="0 0 24 24">
    <title>Status Log</title>
    <path d="M5,3C3.89,3 3,3.89 3,5V19C3,20.11 3.89,21 5,21H19C20.11,21 21,20.11 21,19V5C21,3.89 20.11,3 19,3H5M5,5H19V19H5V5M7,7V9H17V7H7M7,11V13H17V11H7M7,15V17H14V15H7Z" />
  </symbol>
  <!-- #endregion -->

  <!-- #region MARK: Checkboxes
  -->
  <symbol id="checkbox-blank-circle-outline" viewBox="0 0 24 24">
    <title>Unchecked</title>
    <path d="M12,20A8,8 0 0,1 4,12A8,8 0 0,1 12,4A8,8 0 0,1 20,12A8,8 0 0,1 12,20M12,2A10,10 0 0,0 2,12A10,10 0 0,0 12,22A10,10 0 0,0 22,12A10,10 0 0,0 12,2Z" />
  </symbol>

  <symbol id="checkbox-marked-circle-outline" viewBox="0 0 24 24">
    <title>Checked</title>
    <path
      d="M20,12A8,8 0 0,1 12,20A8,8 0 0,1 4,12A8,8 0 0,1 12,4C12.76,4 13.5,4.11 14.2,4.31L15.77,2.74C14.61,2.26 13.34,2
         12,2A10,10 0 0,0 2,12A10,10 0 0,0 12,22A10,10 0 0,0 22,12 M7.91,10.08L6.5,11.5L11,16L21,6L19.59,4.58L11,13.17L7.91,10.08Z"
    />
  </symbol>
  <!-- #endregion -->

  <!-- #region MARK: Loading spinner
  -->
  <symbol id="loading" viewBox="0 0 24 24">
    <title>Loading</title>
    <path d="M12,4V2A10,10 0 0,0 2,12H4A8,8 0 0,1 12,4Z" />
  </symbol>
  <!-- #endregion -->

  <!-- #region MARK: Floating Icons
  -->
  <symbol id="discord" viewBox="0 0 24 24">
    <title>discord</title>
    <path
      d="M20.317 4.3698a19.7913 19.7913 0 00-4.8851-1.5152.0741.0741 0 00-.0785.0371c-.211.3753-.4447.8648-.6083 1.2495-1.8447-.2762-3.68-.2762-5.4868 0-.1636-.3933-.4058-.8742-.6177-1.2495
       a.077.077 0 00-.0785-.037 19.7363 19.7363 0 00-4.8852 1.515.0699.0699 0 00-.0321.0277C.5334 9.0458-.319 13.5799.0992 18.0578a.0824.0824 0 00.0312.0561
       c2.0528 1.5076 4.0413 2.4228 5.9929 3.0294a.0777.0777 0 00.0842-.0276c.4616-.6304.8731-1.2952 1.226-1.9942a.076.076 0 00-.0416-.1057c-.6528-.2476-1.2743-.5495-1.8722-.8923
       a.077.077 0 01-.0076-.1277c.1258-.0943.2517-.1923.3718-.2914a.0743.0743 0 01.0776-.0105c3.9278 1.7933 8.18 1.7933 12.0614 0a.0739.0739 0 01.0785.0095
       c.1202.099.246.1981.3728.2924a.077.077 0 01-.0066.1276 12.2986 12.2986 0 01-1.873.8914.0766.0766 0 00-.0407.1067c.3604.698.7719 1.3628 1.225 1.9932a.076.076 0 00.0842.0286
       c1.961-.6067 3.9495-1.5219 6.0023-3.0294a.077.077 0 00.0313-.0552c.5004-5.177-.8382-9.6739-3.5485-13.6604a.061.061 0 00-.0312-.0286zM8.02 15.3312c-1.1825 0-2.1569-1.0857
       -2.1569-2.419 0-1.3332.9555-2.4189 2.157-2.4189 1.2108 0 2.1757 1.0952 2.1568 2.419 0 1.3332-.9555 2.4189-2.1569 2.4189zm7.9748 0c-1.1825 0-2.1569-1.0857-2.1569-2.419
       0-1.3332.9554-2.4189 2.1569-2.4189 1.2108 0 2.1757 1.0952 2.1568 2.419 0 1.3332-.946 2.4189-2.1568 2.4189Z"
    />
  </symbol>

  <symbol id="docs" viewBox="0 0 24 24">
    <title>Shoko Docs</title>
    <path
      d="M19 1L14 6V17L19 12.5V1M21 5V18.5C19.9 18.15 18.7 18 17.5 18C15.8 18 13.35 18.65 12 19.5V6C10.55 4.9 8.45 4.5 6.5 4.5C4.55 4.5 2.45 4.9 1 6V20.65C1 20.9 1.25 21.15 1.5 21.15
       C1.6 21.15 1.65 21.1 1.75 21.1C3.1 20.45 5.05 20 6.5 20C8.45 20 10.55 20.4 12 21.5C13.35 20.65 15.8 20 17.5 20C19.15 20 20.85 20.3 22.25 21.05C22.35 21.1 22.4 21.1 22.5 21.1
       C22.75 21.1 23 20.85 23 20.6V6C22.4 5.55 21.75 5.25 21 5M10 18.41C8.75 18.09 7.5 18 6.5 18C5.44 18 4.18 18.19 3 18.5V7.13C3.91 6.73 5.14 6.5 6.5 6.5C7.86 6.5 9.09 6.73 10 7.13V18.41Z"
    />
  </symbol>

  <symbol id="github" viewBox="0 0 24 24">
    <title>Github</title>
    <path
      d="M12,2A10,10 0 0,0 2,12C2,16.42 4.87,20.17 8.84,21.5C9.34,21.58 9.5,21.27 9.5,21C9.5,20.77 9.5,20.14 9.5,19.31C6.73,19.91 6.14,17.97 6.14,17.97C5.68,16.81 5.03,16.5 5.03,16.5
       C4.12,15.88 5.1,15.9 5.1,15.9C6.1,15.97 6.63,16.93 6.63,16.93C7.5,18.45 8.97,18 9.54,17.76C9.63,17.11 9.89,16.67 10.17,16.42C7.95,16.17 5.62,15.31 5.62,11.5
       C5.62,10.39 6,9.5 6.65,8.79C6.55,8.54 6.2,7.5 6.75,6.15C6.75,6.15 7.59,5.88 9.5,7.17C10.29,6.95 11.15,6.84 12,6.84C12.85,6.84 13.71,6.95 14.5,7.17C16.41,5.88 17.25,6.15 17.25,6.15
       C17.8,7.5 17.45,8.54 17.35,8.79C18,9.5 18.38,10.39 18.38,11.5C18.38,15.32 16.04,16.16 13.81,16.41C14.17,16.72 14.5,17.33 14.5,18.26C14.5,19.6 14.5,20.68 14.5,21
       C14.5,21.27 14.66,21.59 15.17,21.5C19.14,20.16 22,16.42 22,12A10,10 0 0,0 12,2Z"
    />
  </symbol>
  <!-- #endregion -->
</svg>
