<svg xmlns="http://www.w3.org/2000/svg" style="display: none" aria-hidden="true">
  <!-- #region MARK: Header
  -->
  <symbol id="cog-outline" viewBox="0 0 24 24">
    <title>Configuration</title>
    <path
      d="M12,8A4,4 0 0,1 16,12A4,4 0 0,1 12,16A4,4 0 0,1 8,12A4,4 0 0,1 12,8M12,10A2,2 0 0,0 10,12A2,2 0 0,0 12,14A2,2 0 0,0 14,12A2,2 0 0,0 12,10M10,22C9.75,22 9.54,21.82 9.5,21.58
         L9.13,18.93C8.5,18.68 7.96,18.34 7.44,17.94L4.95,18.95C4.73,19.03 4.46,18.95 4.34,18.73L2.34,15.27C2.21,15.05 2.27,14.78 2.46,14.63L4.57,12.97L4.5,12L4.57,11L2.46,9.37
         C2.27,9.22 2.21,8.95 2.34,8.73L4.34,5.27C4.46,5.05 4.73,4.96 4.95,5.05L7.44,6.05C7.96,5.66 8.5,5.32 9.13,5.07L9.5,2.42C9.54,2.18 9.75,2 10,2H14C14.25,2 14.46,2.18 14.5,2.42
         L14.87,5.07C15.5,5.32 16.04,5.66 16.56,6.05L19.05,5.05C19.27,4.96 19.54,5.05 19.66,5.27L21.66,8.73C21.79,8.95 21.73,9.22 21.54,9.37L19.43,11L19.5,12L19.43,13L21.54,14.63
         C21.73,14.78 21.79,15.05 21.66,15.27L19.66,18.73C19.54,18.95 19.27,19.04 19.05,18.95L16.56,17.95C16.04,18.34 15.5,18.68 14.87,18.93L14.5,21.58C14.46,21.82 14.25,22 14,22H10
         M11.25,4L10.88,6.61C9.68,6.86 8.62,7.5 7.85,8.39L5.44,7.35L4.69,8.65L6.8,10.2C6.4,11.37 6.4,12.64 6.8,13.8L4.68,15.36L5.43,16.66L7.86,15.62C8.63,16.5 9.68,17.14 10.87,17.38
         L11.24,20H12.76L13.13,17.39C14.32,17.14 15.37,16.5 16.14,15.62L18.57,16.66L19.32,15.36L17.2,13.81C17.6,12.64 17.6,11.37 17.2,10.2L19.31,8.65L18.56,7.35L16.15,8.39
         C15.38,7.5 14.32,6.86 13.12,6.62L12.75,4H11.25Z"
    />
  </symbol>

  <symbol id="text-box-outline" viewBox="0 0 24 24">
    <title>Status Log</title>
    <path d="M5,3C3.89,3 3,3.89 3,5V19C3,20.11 3.89,21 5,21H19C20.11,21 21,20.11 21,19V5C21,3.89 20.11,3 19,3H5M5,5H19V19H5V5M7,7V9H17V7H7M7,11V13H17V11H7M7,15V17H14V15H7Z" />
  </symbol>
  <!-- #endregion -->

  <!-- #region MARK: Checkboxes
  -->
  <symbol id="checkbox-blank-circle-outline" viewBox="0 0 24 24">
    <title>Unchecked</title>
    <path d="M12,20A8,8 0 0,1 4,12A8,8 0 0,1 12,4A8,8 0 0,1 20,12A8,8 0 0,1 12,20M12,2A10,10 0 0,0 2,12A10,10 0 0,0 12,22A10,10 0 0,0 22,12A10,10 0 0,0 12,2Z" />
  </symbol>

  <symbol id="checkbox-marked-circle-outline" viewBox="0 0 24 24">
    <title>Checked</title>
    <path
      d="M20,12A8,8 0 0,1 12,20A8,8 0 0,1 4,12A8,8 0 0,1 12,4C12.76,4 13.5,4.11 14.2,4.31L15.77,2.74C14.61,2.26 13.34,2
         12,2A10,10 0 0,0 2,12A10,10 0 0,0 12,22A10,10 0 0,0 22,12 M7.91,10.08L6.5,11.5L11,16L21,6L19.59,4.58L11,13.17L7.91,10.08Z"
    />
  </symbol>
  <!-- #endregion -->

  <!-- #region MARK: Loading spinner
  -->
  <symbol id="loading" viewBox="0 0 24 24">
    <title>Loading</title>
    <path d="M12,4V2A10,10 0 0,0 2,12H4A8,8 0 0,1 12,4Z" />
  </symbol>
  <!-- #endregion -->
</svg>
